<?xml version="1.0" encoding="UTF-8" standalone="no"?>
<svg width="12px" height="12px" viewBox="0 0 12 12" version="1.1" xmlns="http://www.w3.org/2000/svg" xmlns:xlink="http://www.w3.org/1999/xlink">
    <!-- Generator: Sketch 3.7 (28169) - http://www.bohemiancoding.com/sketch -->
    <title>refresh</title>
    <desc>Created with Sketch.</desc>
    <defs></defs>
    <g id="Desktop" stroke="none" stroke-width="1" fill="none" fill-rule="evenodd" opacity="0.4">
        <g id="02-Empty-Form" transform="translate(-940.000000, -224.000000)" fill="#4A4A4A">
            <g id="Group-8" transform="translate(939.000000, 221.000000)">
                <g id="refresh" transform="translate(7.000000, 9.000000) scale(-1, 1) translate(-7.000000, -9.000000) translate(1.000000, 3.000000)">
                    <path d="M6,0 C2.7,0 0,2.7 0,6 C0,9.3 2.7,12 6,12 C8.775,12 11.1,10.05 12,7.5 L10.5,7.5 C9.6,9.225 7.95,10.5 6,10.5 C3.525,10.5 1.5,8.475 1.5,6 C1.5,3.525 3.525,1.5 6,1.5 C7.275,1.5 8.325,2.025 9,3 L6.75,5.25 L12,5.25 L12,0 L10.5,1.5 C9.15,0.75 7.65,0 6,0 Z" id="Shape"></path>
                </g>
            </g>
        </g>
    </g>
</svg>