<?xml version="1.0" encoding="UTF-8" standalone="no"?>
<svg width="12px" height="15px" viewBox="0 0 12 15" version="1.1" xmlns="http://www.w3.org/2000/svg" xmlns:xlink="http://www.w3.org/1999/xlink">
    <!-- Generator: Sketch 3.7 (28169) - http://www.bohemiancoding.com/sketch -->
    <title>Group 4</title>
    <desc>Created with Sketch.</desc>
    <defs></defs>
    <g id="Desktop" stroke="none" stroke-width="1" fill="none" fill-rule="evenodd" opacity="0.4">
        <g id="02-Empty-Form" transform="translate(-940.000000, -258.000000)" fill="#4A4A4A">
            <g id="Group-9" transform="translate(940.000000, 258.000000)">
                <g id="Group-4">
                    <path d="M6,15 C9.3137085,15 12,12.3137085 12,9 C12,5.6862915 9.3137085,3 6,3 C2.6862915,3 0,5.6862915 0,9 C0,12.3137085 2.6862915,15 6,15 Z M6,13 C8.209139,13 10,11.209139 10,9 C10,6.790861 8.209139,5 6,5 C3.790861,5 2,6.790861 2,9 C2,11.209139 3.790861,13 6,13 Z" id="Combined-Shape"></path>
                    <rect id="Rectangle-36" x="5" y="0" width="2" height="10" rx="100"></rect>
                </g>
            </g>
        </g>
    </g>
</svg>