<?xml version="1.0" encoding="UTF-8" standalone="no"?>
<svg width="29px" height="29px" viewBox="0 0 29 29" version="1.1" xmlns="http://www.w3.org/2000/svg" xmlns:xlink="http://www.w3.org/1999/xlink">
    <!-- Generator: Sketch 3.7 (28169) - http://www.bohemiancoding.com/sketch -->
    <title>Group</title>
    <desc>Created with Sketch.</desc>
    <defs></defs>
    <g id="Desktop" stroke="none" stroke-width="1" fill="none" fill-rule="evenodd">
        <g id="04-Success-Message" transform="translate(-626.000000, -466.000000)" fill="#FFFFFF">
            <g id="Group" transform="translate(614.000000, 466.000000)">
                <path d="M39.8347273,8.94254545 C39.5757045,8.68747727 39.1578409,8.69077273 38.9027727,8.95045455 C38.7215227,9.135 38.6767045,9.39797727 38.7557955,9.628 L38.7419545,9.63261364 C39.3417273,11.1399545 39.6818182,12.7784545 39.6818182,14.5 C39.6818182,21.7803182 33.7803182,27.6818182 26.5,27.6818182 C19.2203409,27.6818182 13.3181818,21.7803182 13.3181818,14.5 C13.3181818,7.21968182 19.2203409,1.31818182 26.5,1.31818182 C30.2258409,1.31818182 33.5852273,2.86836364 35.9803636,5.35511364 L35.9889318,5.34654545 C36.2499318,5.58052273 36.6486818,5.57525 36.8971591,5.32281818 C37.1522273,5.06313636 37.1489318,4.64593182 36.88925,4.39086364 C36.8648636,4.36647727 36.8325682,4.35593182 36.8055455,4.33615909 C34.1803864,1.66618182 30.5408864,0 26.5,0 C18.4913864,0 12,6.49138636 12,14.5 C12,22.5079545 18.4913864,29 26.5,29 C34.5079545,29 41,22.5079545 41,14.5 C41,12.6360909 40.6355227,10.8598409 39.9942273,9.22265909 C39.96325,9.12115909 39.9157955,9.02295455 39.8347273,8.94254545 L39.8347273,8.94254545 Z M26.4887955,18.1704773 L20.3750682,12.05675 C20.2557727,11.9374545 20.091,11.8636364 19.9090909,11.8636364 C19.5446136,11.8636364 19.25,12.1589091 19.25,12.5227273 C19.25,12.7046364 19.3231591,12.8694091 19.4431136,12.9893636 L26.0340227,19.5796136 C26.1533182,19.6989091 26.3174318,19.7727273 26.5,19.7727273 C26.6878409,19.7727273 26.8545909,19.6929773 26.9745455,19.5664318 L26.9765227,19.5690682 L37.9820227,8.03893182 C37.9820227,8.04025 37.984,8.04156818 37.9846591,8.04288636 L38.9258409,7.05556818 C38.9251818,7.05490909 38.9245227,7.05359091 38.9238636,7.05227273 L40.8174318,5.06840909 L40.8154545,5.06643182 C40.9281591,4.94845455 41,4.78961364 41,4.61363636 C41,4.24981818 40.7047273,3.95454545 40.3409091,3.95454545 C40.1524091,3.95454545 39.9856591,4.03495455 39.8657045,4.16018182 L39.8643864,4.15820455 L38.1705227,5.93313636 C38.1692045,5.93115909 38.1678864,5.92918182 38.1665682,5.92786364 L37.2471364,6.89145455 C37.2484545,6.89343182 37.2491136,6.89540909 37.2504318,6.89672727 L26.4887955,18.1704773 Z" id="Fill-1"></path>
            </g>
        </g>
    </g>
</svg>