<?xml version="1.0" encoding="UTF-8" standalone="no"?>
<svg width="29px" height="229px" viewBox="0 0 29 229" version="1.1" xmlns="http://www.w3.org/2000/svg" xmlns:xlink="http://www.w3.org/1999/xlink">
    <!-- Generator: Sketch 3.8.3 (29802) - http://www.bohemiancoding.com/sketch -->
    <title>sprites</title>
    <desc>Created with Sketch.</desc>
    <defs></defs>
    <g id="Page-1" stroke="none" stroke-width="1" fill="none" fill-rule="evenodd">
        <g id="sprites">
            <g id="Page-1">
                <g id="refresh" transform="translate(15.000000, 159.000000) scale(-1, 1) translate(-15.000000, -159.000000) translate(9.000000, 153.000000)" fill="#4A4A4A">
                    <path d="M6,0 C2.7,0 0,2.7 0,6 C0,9.3 2.7,12 6,12 C8.775,12 11.1,10.05 12,7.5 L10.5,7.5 C9.6,9.225 7.95,10.5 6,10.5 C3.525,10.5 1.5,8.475 1.5,6 C1.5,3.525 3.525,1.5 6,1.5 C7.275,1.5 8.325,2.025 9,3 L6.75,5.25 L12,5.25 L12,0 L10.5,1.5 C9.15,0.75 7.65,0 6,0 L6,0 Z" id="Shape"></path>
                </g>
                <g id="Group-4" transform="translate(9.000000, 167.000000)" fill="#4A4A4A">
                    <g id="Group-11">
                        <path d="M6,15 C9.3137085,15 12,12.3137085 12,9 C12,5.6862915 9.3137085,3 6,3 C2.6862915,3 0,5.6862915 0,9 C0,12.3137085 2.6862915,15 6,15 L6,15 Z M6,13 C8.209139,13 10,11.209139 10,9 C10,6.790861 8.209139,5 6,5 C3.790861,5 2,6.790861 2,9 C2,11.209139 3.790861,13 6,13 L6,13 Z" id="Combined-Shape"></path>
                        <rect id="Rectangle-36" x="5" y="0" width="2" height="10" rx="1"></rect>
                    </g>
                </g>
                <g id="add" opacity="0.4" transform="translate(8.000000, 135.000000)" fill="#4A4A4A">
                    <polygon id="Shape" points="5.89285714 0.75 5.89285714 5.89285714 0.75 5.89285714 0.75 7.60714286 5.89285714 7.60714286 5.89285714 12.75 7.60714286 12.75 7.60714286 7.60714286 12.75 7.60714286 12.75 5.89285714 7.60714286 5.89285714 7.60714286 0.75"></polygon>
                </g>
                <g id="continue-arrow" transform="translate(6.000000, 17.000000)" fill="#000000">
                    <g id="Page-1">
                        <g id="01-Login">
                            <g id="Group">
                                <polygon id="Shape" points="8 0 6.6 1.4 12.2 7 0 7 0 9 12.2 9 6.6 14.6 8 16 16 8"></polygon>
                            </g>
                        </g>
                    </g>
                </g>
                <g id="icon-add" transform="translate(8.000000, 0.000000)" fill="#4A4A4A">
                    <g id="Desktop">
                        <g id="02-Empty-Form">
                            <g id="Group-7">
                                <g id="add">
                                    <polygon id="Shape" points="5.89285714 0.75 5.89285714 5.89285714 0.75 5.89285714 0.75 7.60714286 5.89285714 7.60714286 5.89285714 12.75 7.60714286 12.75 7.60714286 7.60714286 12.75 7.60714286 12.75 5.89285714 7.60714286 5.89285714 7.60714286 0.75"></polygon>
                                </g>
                            </g>
                        </g>
                    </g>
                </g>
                <g id="icon-done" transform="translate(0.000000, 37.000000)" fill="#FFFFFF">
                    <g id="Desktop">
                        <g id="04-Success-Message">
                            <g id="Group">
                                <path d="M27.8347273,8.94254545 C27.5757045,8.68747727 27.1578409,8.69077273 26.9027727,8.95045455 C26.7215227,9.135 26.6767045,9.39797727 26.7557955,9.628 L26.7419545,9.63261364 C27.3417273,11.1399545 27.6818182,12.7784545 27.6818182,14.5 C27.6818182,21.7803182 21.7803182,27.6818182 14.5,27.6818182 C7.2203409,27.6818182 1.3181818,21.7803182 1.3181818,14.5 C1.3181818,7.21968182 7.2203409,1.31818182 14.5,1.31818182 C18.2258409,1.31818182 21.5852273,2.86836364 23.9803636,5.35511364 L23.9889318,5.34654545 C24.2499318,5.58052273 24.6486818,5.57525 24.8971591,5.32281818 C25.1522273,5.06313636 25.1489318,4.64593182 24.88925,4.39086364 C24.8648636,4.36647727 24.8325682,4.35593182 24.8055455,4.33615909 C22.1803864,1.66618182 18.5408864,0 14.5,0 C6.4913864,0 0,6.49138636 0,14.5 C0,22.5079545 6.4913864,29 14.5,29 C22.5079545,29 29,22.5079545 29,14.5 C29,12.6360909 28.6355227,10.8598409 27.9942273,9.22265909 C27.96325,9.12115909 27.9157955,9.02295455 27.8347273,8.94254545 L27.8347273,8.94254545 L27.8347273,8.94254545 L27.8347273,8.94254545 Z M14.4887955,18.1704773 L8.3750682,12.05675 C8.2557727,11.9374545 8.091,11.8636364 7.9090909,11.8636364 C7.5446136,11.8636364 7.25,12.1589091 7.25,12.5227273 C7.25,12.7046364 7.3231591,12.8694091 7.4431136,12.9893636 L14.0340227,19.5796136 C14.1533182,19.6989091 14.3174318,19.7727273 14.5,19.7727273 C14.6878409,19.7727273 14.8545909,19.6929773 14.9745455,19.5664318 L14.9765227,19.5690682 L25.9820227,8.03893182 C25.9820227,8.04025 25.984,8.04156818 25.9846591,8.04288636 L26.9258409,7.05556818 C26.9251818,7.05490909 26.9245227,7.05359091 26.9238636,7.05227273 L28.8174318,5.06840909 L28.8154545,5.06643182 C28.9281591,4.94845455 29,4.78961364 29,4.61363636 C29,4.24981818 28.7047273,3.95454545 28.3409091,3.95454545 C28.1524091,3.95454545 27.9856591,4.03495455 27.8657045,4.16018182 L27.8643864,4.15820455 L26.1705227,5.93313636 C26.1692045,5.93115909 26.1678864,5.92918182 26.1665682,5.92786364 L25.2471364,6.89145455 C25.2484545,6.89343182 25.2491136,6.89540909 25.2504318,6.89672727 L14.4887955,18.1704773 L14.4887955,18.1704773 L14.4887955,18.1704773 Z" id="Fill-1"></path>
                            </g>
                        </g>
                    </g>
                </g>
                <g id="icon-logout" opacity="0.4" transform="translate(9.000000, 103.000000)" fill="#4A4A4A">
                    <g id="Desktop">
                        <g id="02-Empty-Form">
                            <g id="Group-9">
                                <g id="Group-4">
                                    <path d="M6,15 C9.3137085,15 12,12.3137085 12,9 C12,5.6862915 9.3137085,3 6,3 C2.6862915,3 0,5.6862915 0,9 C0,12.3137085 2.6862915,15 6,15 L6,15 L6,15 Z M6,13 C8.209139,13 10,11.209139 10,9 C10,6.790861 8.209139,5 6,5 C3.790861,5 2,6.790861 2,9 C2,11.209139 3.790861,13 6,13 L6,13 L6,13 Z" id="Combined-Shape"></path>
                                    <rect id="Rectangle-36" x="5" y="0" width="2" height="10" rx="1"></rect>
                                </g>
                            </g>
                        </g>
                    </g>
                </g>
                <g id="icon-refresh" opacity="0.4" transform="translate(9.000000, 120.000000)" fill="#4A4A4A">
                    <g id="Desktop">
                        <g id="02-Empty-Form">
                            <g id="Group-8">
                                <g id="refresh" transform="translate(6.000000, 6.000000) scale(-1, 1) translate(-6.000000, -6.000000) ">
                                    <path d="M6,0 C2.7,0 0,2.7 0,6 C0,9.3 2.7,12 6,12 C8.775,12 11.1,10.05 12,7.5 L10.5,7.5 C9.6,9.225 7.95,10.5 6,10.5 C3.525,10.5 1.5,8.475 1.5,6 C1.5,3.525 3.525,1.5 6,1.5 C7.275,1.5 8.325,2.025 9,3 L6.75,5.25 L12,5.25 L12,0 L10.5,1.5 C9.15,0.75 7.65,0 6,0 L6,0 L6,0 Z" id="Shape"></path>
                                </g>
                            </g>
                        </g>
                    </g>
                </g>
                <g id="chevron-right" opacity="0.4" transform="translate(11.000000, 73.000000)" fill="#FFFFFF">
                    <g id="Desktop">
                        <g id="03-Full-Form">
                            <g id="Group-3">
                                <g id="chevron-left" transform="translate(4.000000, 6.000000) rotate(180.000000) translate(-4.000000, -6.000000) translate(-0.000000, 0.000000)">
                                    <polygon id="Shape" points="7.4 1.4 6 0 0 6 6 12 7.4 10.6 2.8 6"></polygon>
                                </g>
                            </g>
                        </g>
                    </g>
                </g>
                <g id="chevron-left" opacity="0.4" transform="translate(11.000000, 87.000000)" fill="#FFFFFF">
                    <g id="Desktop">
                        <g id="03-Full-Form">
                            <g id="Group-3">
                                <g id="chevron-left">
                                    <polygon id="Shape" points="7.4 1.4 6 0 0 6 6 12 7.4 10.6 2.8 6"></polygon>
                                </g>
                            </g>
                        </g>
                    </g>
                </g>
            </g>
        </g>
        <path d="M21.8555773,195.960604 L15.6153841,185.429046 C15.2774266,184.856985 14.7233219,184.856985 14.3845564,185.429046 L8.14476716,195.960604 C7.80579969,196.532469 8.08275106,197 8.75987799,197 L21.2408705,197 C21.9175934,197 22.1937368,196.532469 21.8555773,195.960604 L21.8555773,195.960604 Z M15.8614284,195.329683 L14.1395221,195.329683 L14.1395221,193.705824 L15.8612264,193.705824 L15.8612264,195.329683 L15.8614284,195.329683 Z M15.8614284,192.677846 L14.1395221,192.677846 L14.1395221,188.834445 L15.8612264,188.834445 L15.8612264,192.677846 L15.8614284,192.677846 Z" id="errorIcon" fill="#F57383"></path>
        <path d="M11.0185,221 C11.2945,220.9895 11.5095,220.758 11.4995,220.4815 L10.7635,208.495 C10.7535,208.219 10.5215,208.004 10.2455,208.0135 C9.9695,208.024 9.754,208.256 9.764,208.532 L10.5005,220.5185 C10.5105,220.7945 10.7425,221.01 11.0185,221 L11.0185,221 Z M19.5,222 C19.4325,222.5275 19.052,223 18.5,223 L9.5,223 C8.9475,223 8.576,222.533 8.5,222 L7.5,206 L20.5,206 L19.5,222 Z M11.5,205 L16.5,205 L16.5,203.0005 L11.5,203.0005 L11.5,205 Z M22.5,205 L17.5,205 L17.5,203.0005 C17.5,202.448 17.052,202 16.5,202 L11.5,202 C10.9475,202 10.5,202.448 10.5,203.0005 L10.5,205 L5.5,205 C5.224,205 5,205.224 5,205.5005 C5,205.7765 5.224,206 5.5,206 L6.5,206 L7.5,222 C7.661,223.0945 8.3955,224 9.5,224 L18.5,224 C19.6045,224 20.312,223.0835 20.5,222 L21.5,206 L22.5,206 C22.776,206 23,205.7765 23,205.5005 C23,205.224 22.776,205 22.5,205 L22.5,205 Z M16.983,220.9995 C17.2595,221.01 17.491,220.794 17.501,220.518 L18.226,208.5315 C18.236,208.2555 18.0205,208.0235 17.7445,208.013 C17.4685,208.0035 17.2365,208.219 17.227,208.495 L16.5015,220.482 C16.4915,220.758 16.7075,220.9895 16.983,220.9995 L16.983,220.9995 Z M14,221 C14.276,221 14.5,220.7765 14.5,220.5 L14.5,208.5 C14.5,208.2235 14.276,208 14,208 C13.724,208 13.5,208.2235 13.5,208.5 L13.5,220.5 C13.5,220.7765 13.724,221 14,221 L14,221 Z" id="Fill-1" fill="#FFFFFF"></path>
    </g>
</svg>